<svg width="50" height="50" viewBox="0 0 50 50" fill="none" xmlns="http://www.w3.org/2000/svg">
<path d="M25 50C38.8543 50 50 38.8543 50 25C50 11.1458 38.8543 0 25 0C11.1458 0 0 11.1458 0 25C0 38.8543 11.1458 50 25 50Z" fill="black"/>
<path d="M25 45.425C36.3162 45.425 45.425 36.3162 45.425 25C45.425 13.6838 36.3162 4.575 25 4.575C13.6838 4.575 4.575 13.6838 4.575 25C4.575 36.3162 13.6838 45.425 25 45.425Z" fill="black" stroke="white" stroke-width="2.85"/>
<path d="M30.4819 28.2214C30.4819 25.3126 28.7366 24.3152 25.246 23.8998C22.7527 23.5672 22.254 22.9024 22.254 21.7388C22.254 20.5751 23.0852 19.8273 24.7473 19.8273C26.2433 19.8273 27.0745 20.326 27.4899 21.5726C27.5731 21.8219 27.8225 21.9881 28.0718 21.9881H29.4014C29.7339 21.9881 29.9833 21.7388 29.9833 21.4065V21.3233C29.6507 19.4948 28.1548 18.082 26.2433 17.9158V15.9212C26.2433 15.5887 25.994 15.3393 25.5785 15.2562H24.3318C23.9993 15.2562 23.75 15.5055 23.6668 15.9212V17.8326C21.1735 18.1652 19.5945 19.8273 19.5945 21.9051C19.5945 24.6477 21.2567 25.728 24.7473 26.1437C27.0745 26.5592 27.8225 27.0579 27.8225 28.3877C27.8225 29.7175 26.6588 30.6317 25.0798 30.6317C22.9188 30.6317 22.1708 29.7173 21.9215 28.4707C21.8385 28.1384 21.5892 27.972 21.3399 27.972H19.9269C19.5945 27.972 19.3452 28.2214 19.3452 28.5539V28.637C19.6775 30.7147 21.0074 32.2106 23.75 32.6263V34.621C23.75 34.9533 23.9993 35.2026 24.4148 35.2858H25.6615C25.994 35.2858 26.2433 35.0365 26.3265 34.621V32.6263C28.8198 32.2106 30.4819 30.4653 30.4819 28.2214Z" fill="white"/>
<path d="M20.7608 36.9477C14.2782 34.6207 10.9537 27.3901 13.3641 20.9905C14.6107 17.4999 17.3534 14.8404 20.7608 13.5938C21.0933 13.4276 21.2595 13.1783 21.2595 12.7626V11.5991C21.2595 11.2666 21.0933 11.0173 20.7608 10.9343C20.6776 10.9343 20.5115 10.9343 20.4283 11.0173C12.5329 13.5106 8.21111 21.9049 10.7044 29.8003C12.2004 34.4544 15.7742 38.0282 20.4283 39.5242C20.7608 39.6903 21.0933 39.5242 21.1763 39.1917C21.2595 39.1087 21.2595 39.0255 21.2595 38.8593V37.6957C21.2595 37.4463 21.0101 37.114 20.7608 36.9477ZM29.5706 11.0173C29.2381 10.8511 28.9055 11.0173 28.8226 11.3498C28.7394 11.433 28.7394 11.516 28.7394 11.6823V12.8458C28.7394 13.1783 28.9887 13.5106 29.2381 13.677C35.7206 16.0039 39.0451 23.2345 36.6348 29.6341C35.3881 33.1247 32.6455 35.7842 29.2381 37.0309C28.9055 37.197 28.7394 37.4463 28.7394 37.862V39.0255C28.7394 39.358 28.9055 39.6073 29.2381 39.6903C29.3212 39.6903 29.4874 39.6903 29.5706 39.6073C37.466 37.114 41.7878 28.7198 39.2945 20.8244C37.7985 16.0871 34.1415 12.5133 29.5706 11.0173Z" fill="white"/>
</svg>
