<svg width="50" height="50" viewBox="0 0 50 50" fill="none" xmlns="http://www.w3.org/2000/svg">
<path d="M25 50C38.8543 50 50 38.8543 50 25C50 11.1458 38.8543 0 25 0C11.1458 0 0 11.1458 0 25C0 38.8543 11.1458 50 25 50Z" fill="#F0F0F0"/>
<path fill-rule="evenodd" clip-rule="evenodd" d="M29.2526 21.5385C29.2526 24.3048 24.9377 23.9692 23.5689 23.9692V19.0958C24.9401 19.0958 29.2526 18.6619 29.2526 21.5385ZM30.3793 29.1039C30.3793 32.1268 25.211 31.7816 23.5641 31.7816V26.4287C25.211 26.4287 30.3793 25.9493 30.3793 29.1159V29.1039ZM33.7833 20.4598C33.5076 17.5592 31.0241 16.6003 27.8814 16.2983V12.3214H25.4675V16.2192C24.8275 16.2192 24.1754 16.2192 23.5258 16.2432V12.3214H21.0999V16.3223H16.1785V18.9256C16.1785 18.9256 17.9716 18.8944 17.9452 18.9256C18.2688 18.89 18.5936 18.9816 18.8508 19.1811C19.1081 19.3807 19.2776 19.6724 19.3236 19.9947V30.9522C19.3169 31.0649 19.2879 31.1753 19.2385 31.2768C19.189 31.3784 19.12 31.4692 19.0354 31.544C18.9507 31.6189 18.8522 31.6763 18.7453 31.7129C18.6384 31.7496 18.5254 31.7647 18.4126 31.7576C18.4438 31.7864 16.6459 31.7576 16.6459 31.7576L16.1665 34.6654H21.0687V38.7405H23.497V34.7253H25.4363V38.7142H27.8647V34.6941C31.9662 34.4544 34.8164 33.4308 35.1856 29.5834C35.4756 26.4838 34.023 25.1031 31.7001 24.5493C33.112 23.8302 33.999 22.5621 33.788 20.4526" fill="black"/>
<path d="M11.8226 10.3796C14.284 8.15302 17.2721 6.59021 20.5049 5.83862C23.7378 5.08703 27.1088 5.17145 30.3 6.0839L30.578 6.16301C30.7171 6.20376 30.8537 6.24691 30.9904 6.29246C31.1869 6.35478 31.3835 6.4219 31.5753 6.49142L31.767 6.56094C32.0283 6.65683 32.2896 6.7599 32.5461 6.86778L32.5773 6.88216C34.622 7.76125 36.522 8.94444 38.213 10.3916L39.2821 9.23617C39.1383 9.09234 38.9897 8.9605 38.8435 8.82386C35.1419 5.61727 30.4443 3.79108 25.5488 3.65558C25.2875 3.65558 25.0262 3.65558 24.7649 3.65558H24.7098C23.122 3.67757 21.5411 3.87046 19.9946 4.2309L19.6781 4.30761L19.4145 4.37712C17.8734 4.7903 16.3841 5.37654 14.9749 6.12466C13.4319 6.95308 12.0271 8.01656 10.811 9.27693L11.8226 10.3796Z" fill="black"/>
<path d="M10.4683 11.7246L9.2937 10.6962C1.32553 19.0479 2.48576 32.6375 9.2937 39.1146L10.4923 38.1773C7.17851 34.5709 5.33782 29.8528 5.33383 24.9552C5.32983 20.0575 7.16283 15.3364 10.4707 11.7246H10.4683Z" fill="black"/>
<path d="M41.2059 11.2163C41.0213 11.0246 40.8344 10.8352 40.6402 10.6554L39.6118 11.7821C45.6527 18.6451 46.928 29.5402 39.8012 37.9279L40.8032 39.1385C44.2271 35.3162 46.1544 30.3855 46.2301 25.2545C46.3059 20.1235 44.525 15.138 41.2155 11.2163H41.2059Z" fill="black"/>
<path d="M38.2892 39.5315C37.5941 40.0517 36.9037 40.5287 36.2109 40.9698C33.6968 42.7466 30.798 43.9032 27.7513 44.345C26.1925 44.5935 24.6072 44.6306 23.0385 44.4553C19.0873 44.0721 15.3468 42.4933 12.316 39.9294C12.1578 39.8144 12.0019 39.7017 11.8365 39.5818L10.7314 40.5719C14.5981 44.3905 19.8982 46.2268 25.1144 46.2244C25.2295 46.2244 25.3541 46.2244 25.4596 46.2244H25.5147C30.3668 46.0978 35.0285 44.3098 38.7207 41.1592C38.8885 41.001 39.0587 40.8451 39.2193 40.6797L38.2892 39.5315Z" fill="black"/>
</svg>
