<svg width="50" height="50" viewBox="0 0 50 50" fill="none" xmlns="http://www.w3.org/2000/svg">
<path d="M25 50C38.8543 50 50 38.8543 50 25C50 11.1458 38.8543 0 25 0C11.1458 0 0 11.1458 0 25C0 38.8543 11.1458 50 25 50Z" fill="#F0F0F0"/>
<path d="M11.8226 10.3796C14.284 8.15296 17.2721 6.59015 20.5049 5.83856C23.7378 5.08697 27.1088 5.17138 30.3 6.08384L30.578 6.16295C30.7171 6.2037 30.8537 6.24685 30.9904 6.2924C31.1869 6.35472 31.3835 6.42184 31.5753 6.49136L31.767 6.56088C32.0283 6.65676 32.2896 6.75984 32.5461 6.86772L32.5773 6.8821C34.622 7.76119 36.522 8.94438 38.213 10.3915L39.2821 9.23611C39.1383 9.09228 38.9897 8.96044 38.8435 8.8238C35.1419 5.61721 30.4443 3.79102 25.5488 3.65552C25.2875 3.65552 25.0262 3.65552 24.7649 3.65552H24.7098C23.122 3.67751 21.5411 3.87039 19.9946 4.23084L19.6781 4.30755L19.4145 4.37706C17.8734 4.79024 16.3841 5.37648 14.9749 6.12459C13.4319 6.95302 12.0271 8.0165 10.811 9.27686L11.8226 10.3796Z" fill="black"/>
<path d="M10.4683 11.7246L9.2937 10.6962C1.32553 19.0479 2.48576 32.6374 9.2937 39.1145L10.4923 38.1772C7.17851 34.5708 5.33782 29.8528 5.33383 24.9551C5.32983 20.0574 7.16283 15.3364 10.4707 11.7246H10.4683Z" fill="black"/>
<path d="M41.2059 11.2162C41.0213 11.0244 40.8344 10.8351 40.6402 10.6553L39.6118 11.7819C45.6527 18.645 46.928 29.5401 39.8012 37.9278L40.8032 39.1384C44.2271 35.3161 46.1544 30.3853 46.2301 25.2544C46.3059 20.1234 44.525 15.1379 41.2155 11.2162H41.2059Z" fill="black"/>
<path d="M38.2892 39.5314C37.5941 40.0516 36.9037 40.5286 36.2109 40.9697C33.6968 42.7465 30.798 43.9031 27.7513 44.3449C26.1925 44.5934 24.6072 44.6305 23.0385 44.4551C19.0873 44.0719 15.3468 42.4931 12.316 39.9293C12.1578 39.8142 12.0019 39.7016 11.8365 39.5817L10.7314 40.5717C14.5981 44.3904 19.8982 46.2266 25.1144 46.2243C25.2295 46.2243 25.3541 46.2243 25.4596 46.2243H25.5147C30.3668 46.0977 35.0285 44.3097 38.7207 41.159C38.8885 41.0008 39.0587 40.845 39.2193 40.6796L38.2892 39.5314Z" fill="black"/>
<path d="M33.3636 24.7485L25.1407 11L17 24.7485L25.1407 29.4693L33.3636 24.7485Z" fill="black"/>
<path d="M25.1407 38L17 26.3221L25.1407 31.1258L33.1169 26.3221L25.1407 38Z" fill="black"/>
</svg>
