<svg width="50" height="50" viewBox="0 0 50 50" fill="none" xmlns="http://www.w3.org/2000/svg">
<path d="M25 50C38.8543 50 50 38.8543 50 25C50 11.1458 38.8543 0 25 0C11.1458 0 0 11.1458 0 25C0 38.8543 11.1458 50 25 50Z" fill="#F0F0F0"/>
<path fill-rule="evenodd" clip-rule="evenodd" d="M27.3935 38.5983H22.6348C23.7968 40.2214 26.2315 40.2214 27.3935 38.5983ZM28.2604 37.1043H21.7494L20.0341 34.0978H29.9573L28.2604 37.1043ZM19.1857 32.5854H30.8242L32.5395 29.5789H17.4888L19.1857 32.5854ZM16.6219 28.0665L14.925 25.06H35.0849L33.3695 28.0665H16.6219ZM14.0765 23.5475H35.9518L37.9622 19.9877H12.0476L14.0765 23.5475ZM11.2176 18.4937C10.4429 16.5939 11.8263 14.4175 13.9474 14.4175H36.044C38.1836 14.4175 39.5669 16.5939 38.7738 18.4937H11.2176Z" fill="black"/>
</svg>
