<svg width="50" height="50" viewBox="0 0 50 50" fill="none" xmlns="http://www.w3.org/2000/svg">
<path d="M25 50C38.8543 50 50 38.8543 50 25C50 11.1458 38.8543 0 25 0C11.1458 0 0 11.1458 0 25C0 38.8543 11.1458 50 25 50Z" fill="#F0F0F0"/>
<g clip-path="url(#clip0)">
<path d="M18.1282 13.558C18.7705 12.8265 19.3613 12.2076 19.924 11.6824C10.4245 11.3777 13.1909 18.2468 10.0775 25.219C6.514 33.2556 10.4995 36.3174 16.4355 37.2739C15.6066 36.2861 14.9301 35.1798 14.4287 33.9918C10.5979 29.1482 12.1499 20.3192 18.1282 13.558Z" fill="black"/>
<path d="M40.9869 22.1196C39.8651 25.0545 38.2421 27.7721 36.1902 30.1515C34.5453 32.1506 32.575 33.8578 30.3621 35.2014C27.7921 36.8299 24.8051 37.6784 21.7628 37.6443C19.9866 37.6602 18.2119 37.5364 16.4551 37.2738C17.4305 38.439 18.6397 39.3862 20.0045 40.0543C28.5944 44.2086 29.1336 36.4955 38.2205 32.5803C43.3219 30.3813 43.3407 26.0864 40.9822 22.1196" fill="black"/>
<path d="M30.3618 14.102C31.6053 14.3196 32.8035 14.7444 33.9065 15.3586C36.796 16.9832 39.2307 19.3082 40.9866 22.1198C42.5339 17.7592 41.8118 14.3364 38.4312 13.7175C34.7083 13.0376 31.8012 12.8172 29.0067 10.8667C25.5651 8.4754 22.5456 9.25374 19.9292 11.6872L20.4965 11.7107C24.1257 11.9264 27.5954 12.6484 30.343 14.0926" fill="black"/>
<path d="M18.1284 13.558C12.1502 20.3192 10.5982 29.1482 14.4477 33.9918C13.5572 31.8893 13.1686 29.6082 13.3127 27.3295C13.4567 25.0507 14.1295 22.8368 15.2777 20.8631C18.5176 15.4616 25.021 13.1172 30.3615 14.1019C27.5951 12.639 24.1254 11.9357 20.515 11.72L19.9477 11.6918C19.3663 12.2264 18.7755 12.8265 18.1284 13.558Z" fill="#424242"/>
<path d="M33.9061 15.349C32.8025 14.7381 31.6043 14.3165 30.3613 14.1018C33.9998 16.0148 36.4146 19.2595 36.4146 24.389C36.3935 26.5544 35.828 28.6796 34.7702 30.5691C33.7124 32.4586 32.1962 34.0516 30.3613 35.2014C32.5753 33.8593 34.5459 32.1519 36.1895 30.1516C38.2413 27.7722 39.8643 25.0545 40.9862 22.1197C39.2314 19.3046 36.7967 16.9763 33.9061 15.349Z" fill="#424242"/>
<path d="M30.3619 14.1019C25.0214 13.1172 18.518 15.4617 15.278 20.8397C14.1251 22.8159 13.4496 25.0341 13.3055 27.3175C13.1614 29.6009 13.5527 31.8864 14.4481 33.9918C14.9478 35.1808 15.6244 36.2873 16.4549 37.274C18.2117 37.5365 19.9864 37.6603 21.7627 37.6444C24.805 37.6785 27.7919 36.83 30.3619 35.2015C32.1971 34.052 33.7135 32.459 34.7714 30.5695C35.8292 28.6799 36.3945 26.5545 36.4152 24.3891C36.4152 19.2596 34.0004 16.0149 30.3619 14.1019ZM29.7618 32.7633C27.7866 34.032 25.3894 34.467 23.0944 33.9732C20.7994 33.4794 18.7932 32.097 17.5146 30.1282C14.8607 26.0349 16.1736 20.7506 20.1544 17.9373C24.6088 14.7724 30.3197 16.0196 32.4016 20.5724C34.4318 25.0081 33.8738 30.1329 29.7618 32.7633Z" fill="#828282"/>
</g>
<defs>
<clipPath id="clip0">
<rect width="33.75" height="31.837" fill="black" transform="translate(8.75 9.41296)"/>
</clipPath>
</defs>
</svg>
