<svg width="50" height="50" viewBox="0 0 50 50" fill="none" xmlns="http://www.w3.org/2000/svg">
<path d="M25 50C38.8543 50 50 38.8543 50 25C50 11.1458 38.8543 0 25 0C11.1458 0 0 11.1458 0 25C0 38.8543 11.1458 50 25 50Z" fill="#F0F0F0"/>
<path d="M31.8708 28.9584C31.8708 25.3126 29.6833 24.0626 25.3083 23.5419C22.1833 23.1251 21.5583 22.2919 21.5583 20.8334C21.5583 19.3749 22.6001 18.4376 24.6833 18.4376C26.5583 18.4376 27.6001 19.0626 28.1208 20.6251C28.2251 20.9376 28.5376 21.1459 28.8501 21.1459H30.5166C30.9333 21.1459 31.2458 20.8334 31.2458 20.4169V20.3126C30.8291 18.0209 28.9541 16.2501 26.5583 16.0419V13.5419C26.5583 13.1251 26.2458 12.8126 25.7251 12.7084H24.1626C23.7458 12.7084 23.4333 13.0209 23.3291 13.5419V15.9376C20.2041 16.3544 18.2251 18.4376 18.2251 21.0419C18.2251 24.4794 20.3083 25.8334 24.6833 26.3544C27.6001 26.8751 28.5376 27.5001 28.5376 29.1669C28.5376 30.8336 27.0791 31.9794 25.1001 31.9794C22.3916 31.9794 21.4541 30.8334 21.1416 29.2709C21.0376 28.8544 20.7251 28.6459 20.4126 28.6459H18.6416C18.2251 28.6459 17.9126 28.9584 17.9126 29.3751V29.4794C18.3291 32.0834 19.9958 33.9584 23.4333 34.4794V36.9794C23.4333 37.3959 23.7458 37.7084 24.2666 37.8126H25.8291C26.2458 37.8126 26.5583 37.5001 26.6626 36.9794V34.4794C29.7876 33.9584 31.8708 31.7709 31.8708 28.9584Z" fill="black"/>
<path d="M19.6871 39.8956C11.5621 36.9791 7.39534 27.9166 10.4163 19.8956C11.9788 15.5206 15.4163 12.1873 19.6871 10.6248C20.1038 10.4166 20.3121 10.1041 20.3121 9.58306V8.12481C20.3121 7.70806 20.1038 7.39556 19.6871 7.29156C19.5828 7.29156 19.3746 7.29156 19.2703 7.39556C9.37459 10.5206 3.95784 21.0416 7.08284 30.9373C8.95784 36.7706 13.4371 41.2498 19.2703 43.1248C19.6871 43.3331 20.1038 43.1248 20.2078 42.7081C20.3121 42.6041 20.3121 42.4998 20.3121 42.2916V40.8331C20.3121 40.5206 19.9996 40.1041 19.6871 39.8956ZM30.7288 7.39556C30.3121 7.18731 29.8953 7.39556 29.7913 7.81231C29.6871 7.91656 29.6871 8.02056 29.6871 8.22907V9.68731C29.6871 10.1041 29.9996 10.5206 30.3121 10.7291C38.4371 13.6456 42.6038 22.7081 39.5828 30.7291C38.0203 35.1041 34.5828 38.4373 30.3121 39.9998C29.8953 40.2081 29.6871 40.5206 29.6871 41.0416V42.4998C29.6871 42.9166 29.8953 43.2291 30.3121 43.3331C30.4163 43.3331 30.6246 43.3331 30.7288 43.2291C40.6246 40.1041 46.0413 29.5831 42.9163 19.6873C41.0413 13.7498 36.4578 9.27056 30.7288 7.39556Z" fill="black"/>
</svg>
