<svg width="80" height="80" viewBox="0 0 80 80" fill="none" xmlns="http://www.w3.org/2000/svg">
<circle cx="40" cy="40" r="40" fill="black"/>
<path fill-rule="evenodd" clip-rule="evenodd" d="M40 62.8002C52.592 62.8002 62.8 52.5923 62.8 40.0002C62.8 27.4081 52.592 17.2002 40 17.2002C27.4079 17.2002 17.2 27.4081 17.2 40.0002C17.2 52.5923 27.4079 62.8002 40 62.8002ZM34.14 32.5292C33.2505 32.5292 32.5294 33.2502 32.5294 34.1397V45.6659C32.5294 46.5553 33.2505 47.2764 34.14 47.2764H45.6661C46.5556 47.2764 47.2766 46.5553 47.2766 45.6659V34.1397C47.2766 33.2502 46.5556 32.5292 45.6661 32.5292H34.14Z" fill="white"/>
</svg>
