<svg width="80" height="80" viewBox="0 0 80 80" fill="none" xmlns="http://www.w3.org/2000/svg">
<circle cx="40" cy="40" r="40" fill="black"/>
<path fill-rule="evenodd" clip-rule="evenodd" d="M23 28.44C23 25.4356 25.4356 23 28.44 23H51.56C54.5644 23 57 25.4356 57 28.44V51.56C57 54.5644 54.5644 57 51.56 57H28.44C25.4356 57 23 54.5644 23 51.56V28.44Z" fill="white"/>
<path d="M43.3999 42.0403H46.1199V32.5203H39.3199V35.2403H42.0399C42.4006 35.2403 42.7465 35.3836 43.0016 35.6386C43.2566 35.8937 43.3999 36.2396 43.3999 36.6003V42.0403ZM36.5999 35.2403V31.1603C36.5999 30.7996 36.7432 30.4537 36.9982 30.1986C37.2533 29.9436 37.5992 29.8003 37.9599 29.8003H47.4799C47.8406 29.8003 48.1865 29.9436 48.4416 30.1986C48.6966 30.4537 48.8399 30.7996 48.8399 31.1603V43.4003C48.8399 43.761 48.6966 44.1069 48.4416 44.362C48.1865 44.617 47.8406 44.7603 47.4799 44.7603H43.3999V48.8403C43.3999 49.201 43.2566 49.5469 43.0016 49.802C42.7465 50.057 42.4006 50.2003 42.0399 50.2003H32.5199C32.1592 50.2003 31.8133 50.057 31.5582 49.802C31.3032 49.5469 31.1599 49.201 31.1599 48.8403V36.6003C31.1599 36.2396 31.3032 35.8937 31.5582 35.6386C31.8133 35.3836 32.1592 35.2403 32.5199 35.2403H36.5999ZM33.8799 37.9603V47.4803H40.6799V37.9603H33.8799Z" fill="black"/>
</svg>
