<svg width="80" height="80" viewBox="0 0 80 80" fill="none" xmlns="http://www.w3.org/2000/svg">
<path d="M74.2149 4.29102L44.56 26.3161L50.0439 13.3216L74.2149 4.29102Z" fill="#868686" stroke="#868686" stroke-width="0.300495" stroke-linecap="round" stroke-linejoin="round"/>
<path d="M5.75531 4.29053L35.1717 26.5242L29.9561 13.3211L5.75531 4.29053Z" fill="#878787" stroke="#878787" stroke-width="0.300495" stroke-linecap="round" stroke-linejoin="round"/>
<path d="M63.5451 55.3442L55.647 67.4446L72.5458 72.094L77.4039 55.6125L63.5451 55.3442Z" fill="#878787" stroke="#878787" stroke-width="0.300495" stroke-linecap="round" stroke-linejoin="round"/>
<path d="M2.62592 55.6125L7.45414 72.094L24.3529 67.4446L16.4549 55.3442L2.62592 55.6125Z" fill="#878787" stroke="#878787" stroke-width="0.300495" stroke-linecap="round" stroke-linejoin="round"/>
<path d="M23.3992 34.8999L18.6902 42.0231L35.4698 42.7682L34.8737 24.7368L23.3992 34.8999Z" fill="#878787" stroke="#878787" stroke-width="0.300495" stroke-linecap="round" stroke-linejoin="round"/>
<path d="M56.5709 34.8996L44.9474 24.5278L44.5599 42.7678L61.3097 42.0227L56.5709 34.8996Z" fill="#878787" stroke="#878787" stroke-width="0.300495" stroke-linecap="round" stroke-linejoin="round"/>
<path d="M24.353 67.4453L34.4267 62.5277L25.7239 55.7324L24.353 67.4453Z" fill="#878787" stroke="#878787" stroke-width="0.300495" stroke-linecap="round" stroke-linejoin="round"/>
<path d="M45.5435 62.5277L55.647 67.4453L54.2463 55.7324L45.5435 62.5277Z" fill="#878787" stroke="#878787" stroke-width="0.300495" stroke-linecap="round" stroke-linejoin="round"/>
<path d="M55.6471 67.445L45.5436 62.5273L46.3483 69.114L46.2589 71.8858L55.6471 67.445Z" fill="#C5C5C5" stroke="#C5C5C5" stroke-width="0.300495" stroke-linecap="round" stroke-linejoin="round"/>
<path d="M24.353 67.4474L33.7412 71.8882L33.6816 69.1164L34.4267 62.5298L24.353 67.4474Z" fill="#C5C5C5" stroke="#C5C5C5" stroke-width="0.300495" stroke-linecap="round" stroke-linejoin="round"/>
<path d="M33.8902 51.3812L25.4855 48.9075L31.4165 46.1953L33.8902 51.3812Z" fill="#323232" stroke="#323232" stroke-width="0.300495" stroke-linecap="round" stroke-linejoin="round"/>
<path d="M46.08 51.3812L48.5537 46.1953L54.5145 48.9075L46.08 51.3812Z" fill="#323232" stroke="#323232" stroke-width="0.300495" stroke-linecap="round" stroke-linejoin="round"/>
<path d="M24.3527 67.4446L25.7833 55.3442L16.4547 55.6125L24.3527 67.4446Z" fill="#737373" stroke="#737373" stroke-width="0.300495" stroke-linecap="round" stroke-linejoin="round"/>
<path d="M54.2162 55.3442L55.6468 67.4446L63.5448 55.6125L54.2162 55.3442Z" fill="#737373" stroke="#737373" stroke-width="0.300495" stroke-linecap="round" stroke-linejoin="round"/>
<path d="M61.3096 42.0215L44.5598 42.7666L46.1096 51.3799L48.5833 46.194L54.5441 48.9062L61.3096 42.0215Z" fill="#737373" stroke="#737373" stroke-width="0.300495" stroke-linecap="round" stroke-linejoin="round"/>
<path d="M25.4853 48.9062L31.4461 46.194L33.89 51.3799L35.4697 42.7666L18.6901 42.0215L25.4853 48.9062Z" fill="#737373" stroke="#737373" stroke-width="0.300495" stroke-linecap="round" stroke-linejoin="round"/>
<path d="M18.6902 42.0215L25.7239 55.7313L25.4855 48.9062L18.6902 42.0215Z" fill="#868686" stroke="#868686" stroke-width="0.300495" stroke-linecap="round" stroke-linejoin="round"/>
<path d="M54.5443 48.9062L54.2462 55.7313L61.3097 42.0215L54.5443 48.9062Z" fill="#868686" stroke="#868686" stroke-width="0.300495" stroke-linecap="round" stroke-linejoin="round"/>
<path d="M35.4698 42.7671L33.8902 51.3804L35.8573 61.5435L36.3043 48.1616L35.4698 42.7671Z" fill="#868686" stroke="#868686" stroke-width="0.300495" stroke-linecap="round" stroke-linejoin="round"/>
<path d="M44.56 42.7671L43.7552 48.1318L44.1129 61.5435L46.1098 51.3804L44.56 42.7671Z" fill="#868686" stroke="#868686" stroke-width="0.300495" stroke-linecap="round" stroke-linejoin="round"/>
<path d="M46.1097 51.3809L44.1129 61.5441L45.5434 62.5276L54.2462 55.7323L54.5442 48.9072L46.1097 51.3809Z" fill="#959595" stroke="#959595" stroke-width="0.300495" stroke-linecap="round" stroke-linejoin="round"/>
<path d="M25.4855 48.9072L25.724 55.7323L34.4267 62.5276L35.8573 61.5441L33.8902 51.3809L25.4855 48.9072Z" fill="#959595" stroke="#959595" stroke-width="0.300495" stroke-linecap="round" stroke-linejoin="round"/>
<path d="M46.2588 71.8871L46.3482 69.1153L45.6031 68.4596H34.3671L33.6816 69.1153L33.7412 71.8871L24.353 67.4463L27.6314 70.1286L34.2777 74.7482H45.6925L52.3686 70.1286L55.647 67.4463L46.2588 71.8871Z" fill="#B0B0B0" stroke="#B0B0B0" stroke-width="0.300495" stroke-linecap="round" stroke-linejoin="round"/>
<path d="M45.5435 62.528L44.1129 61.5444H35.8573L34.4267 62.528L33.6816 69.1146L34.3671 68.4589H45.6031L46.3482 69.1146L45.5435 62.528Z" fill="#161616" stroke="#161616" stroke-width="0.300495" stroke-linecap="round" stroke-linejoin="round"/>
<path d="M75.4667 27.7462L78 15.5862L74.2149 4.29053L45.5436 25.5705L56.571 34.8991L72.1585 39.4591L75.6157 35.4356L74.1255 34.3626L76.5098 32.187L74.662 30.7564L77.0463 28.9383L75.4667 27.7462Z" fill="#464646" stroke="#464646" stroke-width="0.300495" stroke-linecap="round" stroke-linejoin="round"/>
<path d="M2 15.5862L4.53333 27.7462L2.92392 28.9383L5.30823 30.7564L3.49019 32.187L5.8745 34.3626L4.38431 35.4356L7.81176 39.4591L23.3992 34.8991L34.4266 25.5705L5.75529 4.29053L2 15.5862Z" fill="#464646" stroke="#464646" stroke-width="0.300495" stroke-linecap="round" stroke-linejoin="round"/>
<path d="M72.1584 39.4594L56.571 34.8994L61.3098 42.0225L54.2463 55.7323L63.5451 55.6131H77.4039L72.1584 39.4594Z" fill="#959595" stroke="#959595" stroke-width="0.300495" stroke-linecap="round" stroke-linejoin="round"/>
<path d="M23.3992 34.8994L7.81179 39.4594L2.62592 55.6131H16.4549L25.7239 55.7323L18.6902 42.0225L23.3992 34.8994Z" fill="#959595" stroke="#959595" stroke-width="0.300495" stroke-linecap="round" stroke-linejoin="round"/>
<path d="M44.5599 42.769L45.5434 25.5722L50.0736 13.3228H29.956L34.4266 25.5722L35.4697 42.769L35.8274 48.1933L35.8572 61.5454H44.1128L44.1725 48.1933L44.5599 42.769Z" fill="#959595" stroke="#959595" stroke-width="0.300495" stroke-linecap="round" stroke-linejoin="round"/>
</svg>
