<svg width="80" height="80" viewBox="0 0 80 80" fill="none" xmlns="http://www.w3.org/2000/svg">
<circle cx="40" cy="40" r="40" fill="black"/>
<path fill-rule="evenodd" clip-rule="evenodd" d="M57.6605 23.201C58.2912 23.201 58.886 23.4597 59.3254 23.8984C59.7648 24.3482 60.011 24.9554 59.9996 25.5738C59.8879 32.2763 59.6284 37.4043 59.1455 41.4639C58.6739 45.5236 57.9655 48.5374 56.8973 50.9778C56.1775 52.6083 55.2874 53.9578 54.2419 55.1048C52.8366 56.623 51.2286 57.7251 49.4747 58.771C48.7247 59.2195 47.9444 59.6623 47.1262 60.1269C45.3818 61.118 43.4613 62.2078 41.287 63.6628C40.501 64.1912 39.4763 64.1912 38.6903 63.6628C36.4819 62.1908 34.5368 61.0875 32.7754 60.0885C32.3852 59.8663 32.0026 59.6492 31.6276 59.4345C29.5688 58.2424 27.7146 57.1065 26.0952 55.4646C25.0157 54.3851 24.0819 53.0693 23.3395 51.5062C22.3281 49.4145 21.6406 46.8843 21.1349 43.6118C20.4606 39.2373 20.1235 33.5133 20.0004 25.5738C19.989 24.9554 20.2239 24.3482 20.6633 23.8984C21.1008 23.4597 21.7087 23.201 22.3394 23.201H23.3054C26.2865 23.2124 32.8644 22.92 38.5539 18.4892C39.3987 17.8369 40.5786 17.8369 41.4233 18.4892C47.1129 22.92 53.6907 23.2124 56.6833 23.201H57.6605ZM52.4312 49.4821C53.1623 47.975 53.7703 45.8947 54.2305 42.9033C54.7817 39.3273 55.1188 34.4692 55.2779 27.8568C51.7683 27.7555 45.7417 27.0809 39.9934 23.2124C34.247 27.0695 28.2203 27.7443 24.7221 27.8568C24.8471 33.3222 25.0933 37.573 25.4873 40.9129C25.938 44.714 26.5782 47.2892 27.3775 49.0997C27.9059 50.3029 28.4893 51.1689 29.1882 51.9335C30.12 52.957 31.3018 53.8004 32.9098 54.7675C33.5765 55.1677 34.3114 55.584 35.1125 56.0372C36.5387 56.8444 38.1714 57.7687 39.9934 58.9284C41.7832 57.7876 43.3931 56.8728 44.8022 56.0715C45.2265 55.83 45.6337 55.5987 46.022 55.3747C48.0012 54.2389 49.4633 53.2943 50.5543 52.1922C51.2854 51.4388 51.8801 50.6179 52.4312 49.4821Z" fill="white"/>
</svg>
