<svg width="80" height="80" viewBox="0 0 80 80" fill="none" xmlns="http://www.w3.org/2000/svg">
<circle cx="40" cy="40" r="40" fill="black"/>
<path d="M23.2081 28.9784C32.482 19.8985 47.5179 19.8985 56.7917 28.9784L57.9078 30.0711C58.3715 30.5251 58.3715 31.2612 57.9078 31.7152L54.0898 35.4534C53.8579 35.6804 53.4821 35.6804 53.2502 35.4534L51.7143 33.9496C45.2446 27.6152 34.7552 27.6152 28.2856 33.9496L26.6407 35.56C26.4089 35.787 26.033 35.787 25.8011 35.56L21.9831 31.8218C21.5194 31.3678 21.5194 30.6318 21.9831 30.1778L23.2081 28.9784ZM64.6878 36.7093L68.0858 40.0363C68.5495 40.4903 68.5495 41.2263 68.0858 41.6803L52.7637 56.6821C52.3001 57.1361 51.5483 57.1361 51.0846 56.6822C51.0846 56.6821 51.0846 56.6821 51.0846 56.6821L40.2099 46.0349C40.094 45.9214 39.906 45.9214 39.7901 46.0349C39.7901 46.0349 39.7901 46.0349 39.7901 46.0349L28.9157 56.6821C28.452 57.1361 27.7002 57.1361 27.2365 56.6822C27.2365 56.6822 27.2365 56.6822 27.2365 56.6821L11.914 41.6801C11.4503 41.2261 11.4503 40.4901 11.914 40.0361L15.3121 36.7091C15.7757 36.2551 16.5275 36.2551 16.9912 36.7091L27.8661 47.3565C27.982 47.47 28.1699 47.47 28.2859 47.3565C28.2859 47.3565 28.2859 47.3565 28.2859 47.3565L39.1601 36.7091C39.6238 36.2551 40.3756 36.2551 40.8393 36.7091C40.8393 36.7091 40.8393 36.7091 40.8393 36.7091L51.7141 47.3565C51.8301 47.47 52.018 47.47 52.1339 47.3565L63.0086 36.7093C63.4723 36.2553 64.2241 36.2553 64.6878 36.7093Z" fill="white"/>
</svg>
