<svg width="18" height="18" viewBox="0 0 18 18" fill="none" xmlns="http://www.w3.org/2000/svg">
<path fill-rule="evenodd" clip-rule="evenodd" d="M9 16.5C13.1421 16.5 16.5 13.1421 16.5 9C16.5 4.85786 13.1421 1.5 9 1.5C4.85786 1.5 1.5 4.85786 1.5 9C1.5 13.1421 4.85786 16.5 9 16.5ZM9 18C13.9706 18 18 13.9706 18 9C18 4.02944 13.9706 0 9 0C4.02944 0 0 4.02944 0 9C0 13.9706 4.02944 18 9 18Z" fill="#808080"/>
<path d="M8.04492 10.3809C8.04492 9.83398 8.11133 9.39844 8.24414 9.07422C8.37695 8.75 8.61914 8.43164 8.9707 8.11914C9.32617 7.80273 9.5625 7.54688 9.67969 7.35156C9.79688 7.15234 9.85547 6.94336 9.85547 6.72461C9.85547 6.06445 9.55078 5.73438 8.94141 5.73438C8.65234 5.73438 8.41992 5.82422 8.24414 6.00391C8.07227 6.17969 7.98242 6.42383 7.97461 6.73633H6.27539C6.2832 5.99023 6.52344 5.40625 6.99609 4.98438C7.47266 4.5625 8.12109 4.35156 8.94141 4.35156C9.76953 4.35156 10.4121 4.55273 10.8691 4.95508C11.3262 5.35352 11.5547 5.91797 11.5547 6.64844C11.5547 6.98047 11.4805 7.29492 11.332 7.5918C11.1836 7.88477 10.9238 8.21094 10.5527 8.57031L10.0781 9.02148C9.78125 9.30664 9.61133 9.64062 9.56836 10.0234L9.54492 10.3809H8.04492ZM7.875 12.1797C7.875 11.918 7.96289 11.7031 8.13867 11.5352C8.31836 11.3633 8.54688 11.2773 8.82422 11.2773C9.10156 11.2773 9.32812 11.3633 9.50391 11.5352C9.68359 11.7031 9.77344 11.918 9.77344 12.1797C9.77344 12.4375 9.68555 12.6504 9.50977 12.8184C9.33789 12.9863 9.10938 13.0703 8.82422 13.0703C8.53906 13.0703 8.30859 12.9863 8.13281 12.8184C7.96094 12.6504 7.875 12.4375 7.875 12.1797Z" fill="#808080"/>
</svg>
