<svg width="24" height="24" viewBox="0 0 24 24" fill="none" xmlns="http://www.w3.org/2000/svg">
<path d="M17 17V15C17 14.448 17.448 14 18 14C18.552 14 19 14.448 19 15V17C19 18.105 18.105 19 17 19H7C5.895 19 5 18.105 5 17V7C5 5.895 5.895 5 7 5H9C9.552 5 10 5.448 10 6C10 6.552 9.552 7 9 7H7V17H17Z" fill="black"/>
<path fill-rule="evenodd" clip-rule="evenodd" d="M15.586 7H13C12.448 7 12 6.552 12 6C12 5.448 12.448 5 13 5H18C18.276 5 18.526 5.112 18.707 5.293C18.888 5.473 19 5.723 19 6V11C19 11.552 18.552 12 18 12C17.448 12 17 11.552 17 11V8.414L10.757 14.657C10.367 15.047 9.73404 15.047 9.34304 14.657C8.95304 14.267 8.95304 13.633 9.34304 13.243L15.586 7Z" fill="black"/>
</svg>
