<svg width="20" height="20" viewBox="0 0 20 20" fill="none" xmlns="http://www.w3.org/2000/svg">
<path fill-rule="evenodd" clip-rule="evenodd" d="M20 10C20 15.5228 15.5228 20 10 20C4.47715 20 0 15.5228 0 10C0 4.47715 4.47715 0 10 0C15.5228 0 20 4.47715 20 10ZM10 18C14.4183 18 18 14.4183 18 10C18 5.58172 14.4183 2 10 2C5.58172 2 2 5.58172 2 10C2 14.4183 5.58172 18 10 18Z" fill="black"/>
<path fill-rule="evenodd" clip-rule="evenodd" d="M14.7955 7.60613L9.63064 14.385L5.41089 11.3081L6.58923 9.69208L9.22662 11.6152L13.2046 6.39404L14.7955 7.60613Z" fill="black"/>
</svg>
